<?xml version="1.0" encoding="UTF-8" standalone="no"?>
<!DOCTYPE svg PUBLIC "-//W3C//DTD SVG 1.1//EN"
 "http://www.w3.org/Graphics/SVG/1.1/DTD/svg11.dtd">
<!-- Generated by graphviz version 2.40.1 (20161225.0304)
 -->
<!-- Title: Tree Pages: 1 -->
<svg width="2838pt" height="477pt"
 viewBox="0.00 0.00 2838.00 477.00" xmlns="http://www.w3.org/2000/svg" xmlns:xlink="http://www.w3.org/1999/xlink">
<g id="graph0" class="graph" transform="scale(1 1) rotate(0) translate(4 473)">
<title>Tree</title>
<polygon fill="#ffffff" stroke="transparent" points="-4,4 -4,-473 2834,-473 2834,4 -4,4"/>
<!-- 0 -->
<g id="node1" class="node">
<title>0</title>
<path fill="#f4cbae" stroke="#000000" d="M1470.5,-469C1470.5,-469 1342.5,-469 1342.5,-469 1336.5,-469 1330.5,-463 1330.5,-457 1330.5,-457 1330.5,-413 1330.5,-413 1330.5,-407 1336.5,-401 1342.5,-401 1342.5,-401 1470.5,-401 1470.5,-401 1476.5,-401 1482.5,-407 1482.5,-413 1482.5,-413 1482.5,-457 1482.5,-457 1482.5,-463 1476.5,-469 1470.5,-469"/>
<text text-anchor="middle" x="1406.5" y="-453.8" font-family="Helvetica,sans-Serif" font-size="14.00" fill="#000000">avgtemp &lt;= 18.15</text>
<text text-anchor="middle" x="1406.5" y="-438.8" font-family="Helvetica,sans-Serif" font-size="14.00" fill="#000000">squared_error = 23.6</text>
<text text-anchor="middle" x="1406.5" y="-423.8" font-family="Helvetica,sans-Serif" font-size="14.00" fill="#000000">samples = 1930</text>
<text text-anchor="middle" x="1406.5" y="-408.8" font-family="Helvetica,sans-Serif" font-size="14.00" fill="#000000">value = 23.197</text>
</g>
<!-- 1 -->
<g id="node2" class="node">
<title>1</title>
<path fill="#f8decb" stroke="#000000" d="M1119,-365C1119,-365 982,-365 982,-365 976,-365 970,-359 970,-353 970,-353 970,-309 970,-309 970,-303 976,-297 982,-297 982,-297 1119,-297 1119,-297 1125,-297 1131,-303 1131,-309 1131,-309 1131,-353 1131,-353 1131,-359 1125,-365 1119,-365"/>
<text text-anchor="middle" x="1050.5" y="-349.8" font-family="Helvetica,sans-Serif" font-size="14.00" fill="#000000">avgtemp &lt;= 15.15</text>
<text text-anchor="middle" x="1050.5" y="-334.8" font-family="Helvetica,sans-Serif" font-size="14.00" fill="#000000">squared_error = 9.351</text>
<text text-anchor="middle" x="1050.5" y="-319.8" font-family="Helvetica,sans-Serif" font-size="14.00" fill="#000000">samples = 1020</text>
<text text-anchor="middle" x="1050.5" y="-304.8" font-family="Helvetica,sans-Serif" font-size="14.00" fill="#000000">value = 19.726</text>
</g>
<!-- 0&#45;&gt;1 -->
<g id="edge1" class="edge">
<title>0&#45;&gt;1</title>
<path fill="none" stroke="#000000" d="M1330.1291,-412.6894C1274.5855,-396.4632 1199.1871,-374.4367 1140.6796,-357.3446"/>
<polygon fill="#000000" stroke="#000000" points="1141.6519,-353.9824 1131.0716,-354.5378 1139.689,-360.7016 1141.6519,-353.9824"/>
<text text-anchor="middle" x="1143.083" y="-372.7633" font-family="Helvetica,sans-Serif" font-size="14.00" fill="#000000">True</text>
</g>
<!-- 16 -->
<g id="node17" class="node">
<title>16</title>
<path fill="#f0b68c" stroke="#000000" d="M1837,-365C1837,-365 1692,-365 1692,-365 1686,-365 1680,-359 1680,-353 1680,-353 1680,-309 1680,-309 1680,-303 1686,-297 1692,-297 1692,-297 1837,-297 1837,-297 1843,-297 1849,-303 1849,-309 1849,-309 1849,-353 1849,-353 1849,-359 1843,-365 1837,-365"/>
<text text-anchor="middle" x="1764.5" y="-349.8" font-family="Helvetica,sans-Serif" font-size="14.00" fill="#000000">avgtemp &lt;= 22.15</text>
<text text-anchor="middle" x="1764.5" y="-334.8" font-family="Helvetica,sans-Serif" font-size="14.00" fill="#000000">squared_error = 10.927</text>
<text text-anchor="middle" x="1764.5" y="-319.8" font-family="Helvetica,sans-Serif" font-size="14.00" fill="#000000">samples = 910</text>
<text text-anchor="middle" x="1764.5" y="-304.8" font-family="Helvetica,sans-Serif" font-size="14.00" fill="#000000">value = 27.088</text>
</g>
<!-- 0&#45;&gt;16 -->
<g id="edge16" class="edge">
<title>0&#45;&gt;16</title>
<path fill="none" stroke="#000000" d="M1482.8609,-412.817C1537.6193,-396.9095 1611.7331,-375.3792 1670.1884,-358.3978"/>
<polygon fill="#000000" stroke="#000000" points="1671.1728,-361.7566 1679.7994,-355.6058 1669.22,-355.0345 1671.1728,-361.7566"/>
<text text-anchor="middle" x="1667.7551" y="-373.8132" font-family="Helvetica,sans-Serif" font-size="14.00" fill="#000000">False</text>
</g>
<!-- 2 -->
<g id="node3" class="node">
<title>2</title>
<path fill="#fae8db" stroke="#000000" d="M595,-261C595,-261 458,-261 458,-261 452,-261 446,-255 446,-249 446,-249 446,-205 446,-205 446,-199 452,-193 458,-193 458,-193 595,-193 595,-193 601,-193 607,-199 607,-205 607,-205 607,-249 607,-249 607,-255 601,-261 595,-261"/>
<text text-anchor="middle" x="526.5" y="-245.8" font-family="Helvetica,sans-Serif" font-size="14.00" fill="#000000">avgtemp &lt;= 11.95</text>
<text text-anchor="middle" x="526.5" y="-230.8" font-family="Helvetica,sans-Serif" font-size="14.00" fill="#000000">squared_error = 5.972</text>
<text text-anchor="middle" x="526.5" y="-215.8" font-family="Helvetica,sans-Serif" font-size="14.00" fill="#000000">samples = 537</text>
<text text-anchor="middle" x="526.5" y="-200.8" font-family="Helvetica,sans-Serif" font-size="14.00" fill="#000000">value = 17.875</text>
</g>
<!-- 1&#45;&gt;2 -->
<g id="edge2" class="edge">
<title>1&#45;&gt;2</title>
<path fill="none" stroke="#000000" d="M969.7734,-314.9779C874.5736,-296.0833 716.7439,-264.7583 617.3476,-245.0308"/>
<polygon fill="#000000" stroke="#000000" points="617.8084,-241.5541 607.3184,-243.0403 616.4457,-248.4202 617.8084,-241.5541"/>
</g>
<!-- 9 -->
<g id="node10" class="node">
<title>9</title>
<path fill="#f6d3ba" stroke="#000000" d="M1119,-261C1119,-261 982,-261 982,-261 976,-261 970,-255 970,-249 970,-249 970,-205 970,-205 970,-199 976,-193 982,-193 982,-193 1119,-193 1119,-193 1125,-193 1131,-199 1131,-205 1131,-205 1131,-249 1131,-249 1131,-255 1125,-261 1119,-261"/>
<text text-anchor="middle" x="1050.5" y="-245.8" font-family="Helvetica,sans-Serif" font-size="14.00" fill="#000000">avgtemp &lt;= 16.55</text>
<text text-anchor="middle" x="1050.5" y="-230.8" font-family="Helvetica,sans-Serif" font-size="14.00" fill="#000000">squared_error = 5.062</text>
<text text-anchor="middle" x="1050.5" y="-215.8" font-family="Helvetica,sans-Serif" font-size="14.00" fill="#000000">samples = 483</text>
<text text-anchor="middle" x="1050.5" y="-200.8" font-family="Helvetica,sans-Serif" font-size="14.00" fill="#000000">value = 21.784</text>
</g>
<!-- 1&#45;&gt;9 -->
<g id="edge9" class="edge">
<title>1&#45;&gt;9</title>
<path fill="none" stroke="#000000" d="M1050.5,-296.9465C1050.5,-288.776 1050.5,-279.9318 1050.5,-271.3697"/>
<polygon fill="#000000" stroke="#000000" points="1054.0001,-271.13 1050.5,-261.13 1047.0001,-271.13 1054.0001,-271.13"/>
</g>
<!-- 3 -->
<g id="node4" class="node">
<title>3</title>
<path fill="#fdf7f3" stroke="#000000" d="M328,-157C328,-157 191,-157 191,-157 185,-157 179,-151 179,-145 179,-145 179,-101 179,-101 179,-95 185,-89 191,-89 191,-89 328,-89 328,-89 334,-89 340,-95 340,-101 340,-101 340,-145 340,-145 340,-151 334,-157 328,-157"/>
<text text-anchor="middle" x="259.5" y="-141.8" font-family="Helvetica,sans-Serif" font-size="14.00" fill="#000000">sunshine &lt;= 1016.7</text>
<text text-anchor="middle" x="259.5" y="-126.8" font-family="Helvetica,sans-Serif" font-size="14.00" fill="#000000">squared_error = 4.357</text>
<text text-anchor="middle" x="259.5" y="-111.8" font-family="Helvetica,sans-Serif" font-size="14.00" fill="#000000">samples = 105</text>
<text text-anchor="middle" x="259.5" y="-96.8" font-family="Helvetica,sans-Serif" font-size="14.00" fill="#000000">value = 15.093</text>
</g>
<!-- 2&#45;&gt;3 -->
<g id="edge3" class="edge">
<title>2&#45;&gt;3</title>
<path fill="none" stroke="#000000" d="M445.6666,-195.5143C415.3435,-183.7031 380.703,-170.2102 349.5918,-158.0919"/>
<polygon fill="#000000" stroke="#000000" points="350.6471,-154.7469 340.0586,-154.3786 348.1064,-161.2696 350.6471,-154.7469"/>
</g>
<!-- 6 -->
<g id="node7" class="node">
<title>6</title>
<path fill="#fae5d5" stroke="#000000" d="M595,-157C595,-157 458,-157 458,-157 452,-157 446,-151 446,-145 446,-145 446,-101 446,-101 446,-95 452,-89 458,-89 458,-89 595,-89 595,-89 601,-89 607,-95 607,-101 607,-101 607,-145 607,-145 607,-151 601,-157 595,-157"/>
<text text-anchor="middle" x="526.5" y="-141.8" font-family="Helvetica,sans-Serif" font-size="14.00" fill="#000000">wind&#45;gut &lt;= 4.25</text>
<text text-anchor="middle" x="526.5" y="-126.8" font-family="Helvetica,sans-Serif" font-size="14.00" fill="#000000">squared_error = 4.027</text>
<text text-anchor="middle" x="526.5" y="-111.8" font-family="Helvetica,sans-Serif" font-size="14.00" fill="#000000">samples = 432</text>
<text text-anchor="middle" x="526.5" y="-96.8" font-family="Helvetica,sans-Serif" font-size="14.00" fill="#000000">value = 18.551</text>
</g>
<!-- 2&#45;&gt;6 -->
<g id="edge6" class="edge">
<title>2&#45;&gt;6</title>
<path fill="none" stroke="#000000" d="M526.5,-192.9465C526.5,-184.776 526.5,-175.9318 526.5,-167.3697"/>
<polygon fill="#000000" stroke="#000000" points="530.0001,-167.13 526.5,-157.13 523.0001,-167.13 530.0001,-167.13"/>
</g>
<!-- 4 -->
<g id="node5" class="node">
<title>4</title>
<path fill="#ffffff" stroke="#000000" d="M149,-53C149,-53 12,-53 12,-53 6,-53 0,-47 0,-41 0,-41 0,-12 0,-12 0,-6 6,0 12,0 12,0 149,0 149,0 155,0 161,-6 161,-12 161,-12 161,-41 161,-41 161,-47 155,-53 149,-53"/>
<text text-anchor="middle" x="80.5" y="-37.8" font-family="Helvetica,sans-Serif" font-size="14.00" fill="#000000">squared_error = 3.055</text>
<text text-anchor="middle" x="80.5" y="-22.8" font-family="Helvetica,sans-Serif" font-size="14.00" fill="#000000">samples = 42</text>
<text text-anchor="middle" x="80.5" y="-7.8" font-family="Helvetica,sans-Serif" font-size="14.00" fill="#000000">value = 13.695</text>
</g>
<!-- 3&#45;&gt;4 -->
<g id="edge4" class="edge">
<title>3&#45;&gt;4</title>
<path fill="none" stroke="#000000" d="M196.3913,-88.9777C177.6208,-78.8584 157.1494,-67.8222 138.7063,-57.8794"/>
<polygon fill="#000000" stroke="#000000" points="140.295,-54.7597 129.8317,-53.095 136.9732,-60.9213 140.295,-54.7597"/>
</g>
<!-- 5 -->
<g id="node6" class="node">
<title>5</title>
<path fill="#fcf2eb" stroke="#000000" d="M328,-53C328,-53 191,-53 191,-53 185,-53 179,-47 179,-41 179,-41 179,-12 179,-12 179,-6 185,0 191,0 191,0 328,0 328,0 334,0 340,-6 340,-12 340,-12 340,-41 340,-41 340,-47 334,-53 328,-53"/>
<text text-anchor="middle" x="259.5" y="-37.8" font-family="Helvetica,sans-Serif" font-size="14.00" fill="#000000">squared_error = 3.053</text>
<text text-anchor="middle" x="259.5" y="-22.8" font-family="Helvetica,sans-Serif" font-size="14.00" fill="#000000">samples = 63</text>
<text text-anchor="middle" x="259.5" y="-7.8" font-family="Helvetica,sans-Serif" font-size="14.00" fill="#000000">value = 16.025</text>
</g>
<!-- 3&#45;&gt;5 -->
<g id="edge5" class="edge">
<title>3&#45;&gt;5</title>
<path fill="none" stroke="#000000" d="M259.5,-88.9777C259.5,-80.7364 259.5,-71.887 259.5,-63.5153"/>
<polygon fill="#000000" stroke="#000000" points="263.0001,-63.2484 259.5,-53.2485 256.0001,-63.2485 263.0001,-63.2484"/>
</g>
<!-- 7 -->
<g id="node8" class="node">
<title>7</title>
<path fill="#f9e2d1" stroke="#000000" d="M507,-53C507,-53 370,-53 370,-53 364,-53 358,-47 358,-41 358,-41 358,-12 358,-12 358,-6 364,0 370,0 370,0 507,0 507,0 513,0 519,-6 519,-12 519,-12 519,-41 519,-41 519,-47 513,-53 507,-53"/>
<text text-anchor="middle" x="438.5" y="-37.8" font-family="Helvetica,sans-Serif" font-size="14.00" fill="#000000">squared_error = 3.832</text>
<text text-anchor="middle" x="438.5" y="-22.8" font-family="Helvetica,sans-Serif" font-size="14.00" fill="#000000">samples = 313</text>
<text text-anchor="middle" x="438.5" y="-7.8" font-family="Helvetica,sans-Serif" font-size="14.00" fill="#000000">value = 19.01</text>
</g>
<!-- 6&#45;&gt;7 -->
<g id="edge7" class="edge">
<title>6&#45;&gt;7</title>
<path fill="none" stroke="#000000" d="M495.4745,-88.9777C487.1241,-79.8207 478.089,-69.9129 469.7276,-60.744"/>
<polygon fill="#000000" stroke="#000000" points="472.2167,-58.2791 462.8924,-53.2485 467.0444,-62.9959 472.2167,-58.2791"/>
</g>
<!-- 8 -->
<g id="node9" class="node">
<title>8</title>
<path fill="#fbebe0" stroke="#000000" d="M677.5,-53C677.5,-53 549.5,-53 549.5,-53 543.5,-53 537.5,-47 537.5,-41 537.5,-41 537.5,-12 537.5,-12 537.5,-6 543.5,0 549.5,0 549.5,0 677.5,0 677.5,0 683.5,0 689.5,-6 689.5,-12 689.5,-12 689.5,-41 689.5,-41 689.5,-47 683.5,-53 677.5,-53"/>
<text text-anchor="middle" x="613.5" y="-37.8" font-family="Helvetica,sans-Serif" font-size="14.00" fill="#000000">squared_error = 2.53</text>
<text text-anchor="middle" x="613.5" y="-22.8" font-family="Helvetica,sans-Serif" font-size="14.00" fill="#000000">samples = 119</text>
<text text-anchor="middle" x="613.5" y="-7.8" font-family="Helvetica,sans-Serif" font-size="14.00" fill="#000000">value = 17.345</text>
</g>
<!-- 6&#45;&gt;8 -->
<g id="edge8" class="edge">
<title>6&#45;&gt;8</title>
<path fill="none" stroke="#000000" d="M557.1729,-88.9777C565.4285,-79.8207 574.3609,-69.9129 582.6272,-60.744"/>
<polygon fill="#000000" stroke="#000000" points="585.2883,-63.0193 589.3848,-53.2485 580.0892,-58.3321 585.2883,-63.0193"/>
</g>
<!-- 10 -->
<g id="node11" class="node">
<title>10</title>
<path fill="#f7d7c1" stroke="#000000" d="M1032,-157C1032,-157 895,-157 895,-157 889,-157 883,-151 883,-145 883,-145 883,-101 883,-101 883,-95 889,-89 895,-89 895,-89 1032,-89 1032,-89 1038,-89 1044,-95 1044,-101 1044,-101 1044,-145 1044,-145 1044,-151 1038,-157 1032,-157"/>
<text text-anchor="middle" x="963.5" y="-141.8" font-family="Helvetica,sans-Serif" font-size="14.00" fill="#000000">sunshine &lt;= 1017.05</text>
<text text-anchor="middle" x="963.5" y="-126.8" font-family="Helvetica,sans-Serif" font-size="14.00" fill="#000000">squared_error = 4.391</text>
<text text-anchor="middle" x="963.5" y="-111.8" font-family="Helvetica,sans-Serif" font-size="14.00" fill="#000000">samples = 243</text>
<text text-anchor="middle" x="963.5" y="-96.8" font-family="Helvetica,sans-Serif" font-size="14.00" fill="#000000">value = 20.955</text>
</g>
<!-- 9&#45;&gt;10 -->
<g id="edge10" class="edge">
<title>9&#45;&gt;10</title>
<path fill="none" stroke="#000000" d="M1022.0129,-192.9465C1014.5021,-183.968 1006.3105,-174.1758 998.4995,-164.8385"/>
<polygon fill="#000000" stroke="#000000" points="1001.152,-162.5544 992.0511,-157.13 995.7829,-167.0459 1001.152,-162.5544"/>
</g>
<!-- 13 -->
<g id="node14" class="node">
<title>13</title>
<path fill="#f5ceb3" stroke="#000000" d="M1203,-157C1203,-157 1074,-157 1074,-157 1068,-157 1062,-151 1062,-145 1062,-145 1062,-101 1062,-101 1062,-95 1068,-89 1074,-89 1074,-89 1203,-89 1203,-89 1209,-89 1215,-95 1215,-101 1215,-101 1215,-145 1215,-145 1215,-151 1209,-157 1203,-157"/>
<text text-anchor="middle" x="1138.5" y="-141.8" font-family="Helvetica,sans-Serif" font-size="14.00" fill="#000000">sunshine &lt;= 1018.25</text>
<text text-anchor="middle" x="1138.5" y="-126.8" font-family="Helvetica,sans-Serif" font-size="14.00" fill="#000000">squared_error = 4.34</text>
<text text-anchor="middle" x="1138.5" y="-111.8" font-family="Helvetica,sans-Serif" font-size="14.00" fill="#000000">samples = 240</text>
<text text-anchor="middle" x="1138.5" y="-96.8" font-family="Helvetica,sans-Serif" font-size="14.00" fill="#000000">value = 22.624</text>
</g>
<!-- 9&#45;&gt;13 -->
<g id="edge13" class="edge">
<title>9&#45;&gt;13</title>
<path fill="none" stroke="#000000" d="M1079.3145,-192.9465C1086.9117,-183.968 1095.1974,-174.1758 1103.0982,-164.8385"/>
<polygon fill="#000000" stroke="#000000" points="1105.8332,-167.0247 1109.6208,-157.13 1100.4895,-162.5031 1105.8332,-167.0247"/>
</g>
<!-- 11 -->
<g id="node12" class="node">
<title>11</title>
<path fill="#f8dbc7" stroke="#000000" d="M857,-53C857,-53 720,-53 720,-53 714,-53 708,-47 708,-41 708,-41 708,-12 708,-12 708,-6 714,0 720,0 720,0 857,0 857,0 863,0 869,-6 869,-12 869,-12 869,-41 869,-41 869,-47 863,-53 857,-53"/>
<text text-anchor="middle" x="788.5" y="-37.8" font-family="Helvetica,sans-Serif" font-size="14.00" fill="#000000">squared_error = 2.732</text>
<text text-anchor="middle" x="788.5" y="-22.8" font-family="Helvetica,sans-Serif" font-size="14.00" fill="#000000">samples = 143</text>
<text text-anchor="middle" x="788.5" y="-7.8" font-family="Helvetica,sans-Serif" font-size="14.00" fill="#000000">value = 20.233</text>
</g>
<!-- 10&#45;&gt;11 -->
<g id="edge11" class="edge">
<title>10&#45;&gt;11</title>
<path fill="none" stroke="#000000" d="M901.8015,-88.9777C883.6173,-78.9504 863.8003,-68.0228 845.8979,-58.1508"/>
<polygon fill="#000000" stroke="#000000" points="847.1763,-54.859 836.7293,-53.095 843.7961,-60.9888 847.1763,-54.859"/>
</g>
<!-- 12 -->
<g id="node13" class="node">
<title>12</title>
<path fill="#f6d2b8" stroke="#000000" d="M1027.5,-53C1027.5,-53 899.5,-53 899.5,-53 893.5,-53 887.5,-47 887.5,-41 887.5,-41 887.5,-12 887.5,-12 887.5,-6 893.5,0 899.5,0 899.5,0 1027.5,0 1027.5,0 1033.5,0 1039.5,-6 1039.5,-12 1039.5,-12 1039.5,-41 1039.5,-41 1039.5,-47 1033.5,-53 1027.5,-53"/>
<text text-anchor="middle" x="963.5" y="-37.8" font-family="Helvetica,sans-Serif" font-size="14.00" fill="#000000">squared_error = 4.95</text>
<text text-anchor="middle" x="963.5" y="-22.8" font-family="Helvetica,sans-Serif" font-size="14.00" fill="#000000">samples = 100</text>
<text text-anchor="middle" x="963.5" y="-7.8" font-family="Helvetica,sans-Serif" font-size="14.00" fill="#000000">value = 21.988</text>
</g>
<!-- 10&#45;&gt;12 -->
<g id="edge12" class="edge">
<title>10&#45;&gt;12</title>
<path fill="none" stroke="#000000" d="M963.5,-88.9777C963.5,-80.7364 963.5,-71.887 963.5,-63.5153"/>
<polygon fill="#000000" stroke="#000000" points="967.0001,-63.2484 963.5,-53.2485 960.0001,-63.2485 967.0001,-63.2484"/>
</g>
<!-- 14 -->
<g id="node15" class="node">
<title>14</title>
<path fill="#f5d1b6" stroke="#000000" d="M1207,-53C1207,-53 1070,-53 1070,-53 1064,-53 1058,-47 1058,-41 1058,-41 1058,-12 1058,-12 1058,-6 1064,0 1070,0 1070,0 1207,0 1207,0 1213,0 1219,-6 1219,-12 1219,-12 1219,-41 1219,-41 1219,-47 1213,-53 1207,-53"/>
<text text-anchor="middle" x="1138.5" y="-37.8" font-family="Helvetica,sans-Serif" font-size="14.00" fill="#000000">squared_error = 3.374</text>
<text text-anchor="middle" x="1138.5" y="-22.8" font-family="Helvetica,sans-Serif" font-size="14.00" fill="#000000">samples = 195</text>
<text text-anchor="middle" x="1138.5" y="-7.8" font-family="Helvetica,sans-Serif" font-size="14.00" fill="#000000">value = 22.162</text>
</g>
<!-- 13&#45;&gt;14 -->
<g id="edge14" class="edge">
<title>13&#45;&gt;14</title>
<path fill="none" stroke="#000000" d="M1138.5,-88.9777C1138.5,-80.7364 1138.5,-71.887 1138.5,-63.5153"/>
<polygon fill="#000000" stroke="#000000" points="1142.0001,-63.2484 1138.5,-53.2485 1135.0001,-63.2485 1142.0001,-63.2484"/>
</g>
<!-- 15 -->
<g id="node16" class="node">
<title>15</title>
<path fill="#f3c3a1" stroke="#000000" d="M1386,-53C1386,-53 1249,-53 1249,-53 1243,-53 1237,-47 1237,-41 1237,-41 1237,-12 1237,-12 1237,-6 1243,0 1249,0 1249,0 1386,0 1386,0 1392,0 1398,-6 1398,-12 1398,-12 1398,-41 1398,-41 1398,-47 1392,-53 1386,-53"/>
<text text-anchor="middle" x="1317.5" y="-37.8" font-family="Helvetica,sans-Serif" font-size="14.00" fill="#000000">squared_error = 3.602</text>
<text text-anchor="middle" x="1317.5" y="-22.8" font-family="Helvetica,sans-Serif" font-size="14.00" fill="#000000">samples = 45</text>
<text text-anchor="middle" x="1317.5" y="-7.8" font-family="Helvetica,sans-Serif" font-size="14.00" fill="#000000">value = 24.624</text>
</g>
<!-- 13&#45;&gt;15 -->
<g id="edge15" class="edge">
<title>13&#45;&gt;15</title>
<path fill="none" stroke="#000000" d="M1201.6087,-88.9777C1220.3792,-78.8584 1240.8506,-67.8222 1259.2937,-57.8794"/>
<polygon fill="#000000" stroke="#000000" points="1261.0268,-60.9213 1268.1683,-53.095 1257.705,-54.7597 1261.0268,-60.9213"/>
</g>
<!-- 17 -->
<g id="node18" class="node">
<title>17</title>
<path fill="#f2be99" stroke="#000000" d="M1833,-261C1833,-261 1696,-261 1696,-261 1690,-261 1684,-255 1684,-249 1684,-249 1684,-205 1684,-205 1684,-199 1690,-193 1696,-193 1696,-193 1833,-193 1833,-193 1839,-193 1845,-199 1845,-205 1845,-205 1845,-249 1845,-249 1845,-255 1839,-261 1833,-261"/>
<text text-anchor="middle" x="1764.5" y="-245.8" font-family="Helvetica,sans-Serif" font-size="14.00" fill="#000000">avgtemp &lt;= 20.25</text>
<text text-anchor="middle" x="1764.5" y="-230.8" font-family="Helvetica,sans-Serif" font-size="14.00" fill="#000000">squared_error = 4.487</text>
<text text-anchor="middle" x="1764.5" y="-215.8" font-family="Helvetica,sans-Serif" font-size="14.00" fill="#000000">samples = 647</text>
<text text-anchor="middle" x="1764.5" y="-200.8" font-family="Helvetica,sans-Serif" font-size="14.00" fill="#000000">value = 25.577</text>
</g>
<!-- 16&#45;&gt;17 -->
<g id="edge17" class="edge">
<title>16&#45;&gt;17</title>
<path fill="none" stroke="#000000" d="M1764.5,-296.9465C1764.5,-288.776 1764.5,-279.9318 1764.5,-271.3697"/>
<polygon fill="#000000" stroke="#000000" points="1768.0001,-271.13 1764.5,-261.13 1761.0001,-271.13 1768.0001,-271.13"/>
</g>
<!-- 24 -->
<g id="node25" class="node">
<title>24</title>
<path fill="#eca26c" stroke="#000000" d="M2370,-261C2370,-261 2233,-261 2233,-261 2227,-261 2221,-255 2221,-249 2221,-249 2221,-205 2221,-205 2221,-199 2227,-193 2233,-193 2233,-193 2370,-193 2370,-193 2376,-193 2382,-199 2382,-205 2382,-205 2382,-249 2382,-249 2382,-255 2376,-261 2370,-261"/>
<text text-anchor="middle" x="2301.5" y="-245.8" font-family="Helvetica,sans-Serif" font-size="14.00" fill="#000000">avgtemp &lt;= 24.85</text>
<text text-anchor="middle" x="2301.5" y="-230.8" font-family="Helvetica,sans-Serif" font-size="14.00" fill="#000000">squared_error = 7.328</text>
<text text-anchor="middle" x="2301.5" y="-215.8" font-family="Helvetica,sans-Serif" font-size="14.00" fill="#000000">samples = 263</text>
<text text-anchor="middle" x="2301.5" y="-200.8" font-family="Helvetica,sans-Serif" font-size="14.00" fill="#000000">value = 30.806</text>
</g>
<!-- 16&#45;&gt;24 -->
<g id="edge24" class="edge">
<title>16&#45;&gt;24</title>
<path fill="none" stroke="#000000" d="M1849.2929,-314.5783C1947.8298,-295.4948 2109.7833,-264.1295 2210.782,-244.5692"/>
<polygon fill="#000000" stroke="#000000" points="2211.5123,-247.9929 2220.6644,-242.6553 2210.1813,-241.1206 2211.5123,-247.9929"/>
</g>
<!-- 18 -->
<g id="node19" class="node">
<title>18</title>
<path fill="#f3c4a2" stroke="#000000" d="M1744,-157C1744,-157 1607,-157 1607,-157 1601,-157 1595,-151 1595,-145 1595,-145 1595,-101 1595,-101 1595,-95 1601,-89 1607,-89 1607,-89 1744,-89 1744,-89 1750,-89 1756,-95 1756,-101 1756,-101 1756,-145 1756,-145 1756,-151 1750,-157 1744,-157"/>
<text text-anchor="middle" x="1675.5" y="-141.8" font-family="Helvetica,sans-Serif" font-size="14.00" fill="#000000">sunshine &lt;= 1016.75</text>
<text text-anchor="middle" x="1675.5" y="-126.8" font-family="Helvetica,sans-Serif" font-size="14.00" fill="#000000">squared_error = 3.435</text>
<text text-anchor="middle" x="1675.5" y="-111.8" font-family="Helvetica,sans-Serif" font-size="14.00" fill="#000000">samples = 375</text>
<text text-anchor="middle" x="1675.5" y="-96.8" font-family="Helvetica,sans-Serif" font-size="14.00" fill="#000000">value = 24.595</text>
</g>
<!-- 17&#45;&gt;18 -->
<g id="edge18" class="edge">
<title>17&#45;&gt;18</title>
<path fill="none" stroke="#000000" d="M1735.3581,-192.9465C1727.6745,-183.968 1719.2947,-174.1758 1711.3041,-164.8385"/>
<polygon fill="#000000" stroke="#000000" points="1713.8685,-162.4521 1704.7074,-157.13 1708.5501,-167.0034 1713.8685,-162.4521"/>
</g>
<!-- 21 -->
<g id="node22" class="node">
<title>21</title>
<path fill="#f0b78e" stroke="#000000" d="M1923,-157C1923,-157 1786,-157 1786,-157 1780,-157 1774,-151 1774,-145 1774,-145 1774,-101 1774,-101 1774,-95 1780,-89 1786,-89 1786,-89 1923,-89 1923,-89 1929,-89 1935,-95 1935,-101 1935,-101 1935,-145 1935,-145 1935,-151 1929,-157 1923,-157"/>
<text text-anchor="middle" x="1854.5" y="-141.8" font-family="Helvetica,sans-Serif" font-size="14.00" fill="#000000">avgtemp &lt;= 21.15</text>
<text text-anchor="middle" x="1854.5" y="-126.8" font-family="Helvetica,sans-Serif" font-size="14.00" fill="#000000">squared_error = 2.778</text>
<text text-anchor="middle" x="1854.5" y="-111.8" font-family="Helvetica,sans-Serif" font-size="14.00" fill="#000000">samples = 272</text>
<text text-anchor="middle" x="1854.5" y="-96.8" font-family="Helvetica,sans-Serif" font-size="14.00" fill="#000000">value = 26.931</text>
</g>
<!-- 17&#45;&gt;21 -->
<g id="edge21" class="edge">
<title>17&#45;&gt;21</title>
<path fill="none" stroke="#000000" d="M1793.9694,-192.9465C1801.7393,-183.968 1810.2132,-174.1758 1818.2936,-164.8385"/>
<polygon fill="#000000" stroke="#000000" points="1821.0672,-166.982 1824.9644,-157.13 1815.774,-162.4014 1821.0672,-166.982"/>
</g>
<!-- 19 -->
<g id="node20" class="node">
<title>19</title>
<path fill="#f3c5a4" stroke="#000000" d="M1565,-53C1565,-53 1428,-53 1428,-53 1422,-53 1416,-47 1416,-41 1416,-41 1416,-12 1416,-12 1416,-6 1422,0 1428,0 1428,0 1565,0 1565,0 1571,0 1577,-6 1577,-12 1577,-12 1577,-41 1577,-41 1577,-47 1571,-53 1565,-53"/>
<text text-anchor="middle" x="1496.5" y="-37.8" font-family="Helvetica,sans-Serif" font-size="14.00" fill="#000000">squared_error = 2.863</text>
<text text-anchor="middle" x="1496.5" y="-22.8" font-family="Helvetica,sans-Serif" font-size="14.00" fill="#000000">samples = 331</text>
<text text-anchor="middle" x="1496.5" y="-7.8" font-family="Helvetica,sans-Serif" font-size="14.00" fill="#000000">value = 24.367</text>
</g>
<!-- 18&#45;&gt;19 -->
<g id="edge19" class="edge">
<title>18&#45;&gt;19</title>
<path fill="none" stroke="#000000" d="M1612.3913,-88.9777C1593.6208,-78.8584 1573.1494,-67.8222 1554.7063,-57.8794"/>
<polygon fill="#000000" stroke="#000000" points="1556.295,-54.7597 1545.8317,-53.095 1552.9732,-60.9213 1556.295,-54.7597"/>
</g>
<!-- 20 -->
<g id="node21" class="node">
<title>20</title>
<path fill="#f1ba93" stroke="#000000" d="M1744,-53C1744,-53 1607,-53 1607,-53 1601,-53 1595,-47 1595,-41 1595,-41 1595,-12 1595,-12 1595,-6 1601,0 1607,0 1607,0 1744,0 1744,0 1750,0 1756,-6 1756,-12 1756,-12 1756,-41 1756,-41 1756,-47 1750,-53 1744,-53"/>
<text text-anchor="middle" x="1675.5" y="-37.8" font-family="Helvetica,sans-Serif" font-size="14.00" fill="#000000">squared_error = 4.409</text>
<text text-anchor="middle" x="1675.5" y="-22.8" font-family="Helvetica,sans-Serif" font-size="14.00" fill="#000000">samples = 44</text>
<text text-anchor="middle" x="1675.5" y="-7.8" font-family="Helvetica,sans-Serif" font-size="14.00" fill="#000000">value = 26.309</text>
</g>
<!-- 18&#45;&gt;20 -->
<g id="edge20" class="edge">
<title>18&#45;&gt;20</title>
<path fill="none" stroke="#000000" d="M1675.5,-88.9777C1675.5,-80.7364 1675.5,-71.887 1675.5,-63.5153"/>
<polygon fill="#000000" stroke="#000000" points="1679.0001,-63.2484 1675.5,-53.2485 1672.0001,-63.2485 1679.0001,-63.2484"/>
</g>
<!-- 22 -->
<g id="node23" class="node">
<title>22</title>
<path fill="#f1ba93" stroke="#000000" d="M1923,-53C1923,-53 1786,-53 1786,-53 1780,-53 1774,-47 1774,-41 1774,-41 1774,-12 1774,-12 1774,-6 1780,0 1786,0 1786,0 1923,0 1923,0 1929,0 1935,-6 1935,-12 1935,-12 1935,-41 1935,-41 1935,-47 1929,-53 1923,-53"/>
<text text-anchor="middle" x="1854.5" y="-37.8" font-family="Helvetica,sans-Serif" font-size="14.00" fill="#000000">squared_error = 2.775</text>
<text text-anchor="middle" x="1854.5" y="-22.8" font-family="Helvetica,sans-Serif" font-size="14.00" fill="#000000">samples = 131</text>
<text text-anchor="middle" x="1854.5" y="-7.8" font-family="Helvetica,sans-Serif" font-size="14.00" fill="#000000">value = 26.302</text>
</g>
<!-- 21&#45;&gt;22 -->
<g id="edge22" class="edge">
<title>21&#45;&gt;22</title>
<path fill="none" stroke="#000000" d="M1854.5,-88.9777C1854.5,-80.7364 1854.5,-71.887 1854.5,-63.5153"/>
<polygon fill="#000000" stroke="#000000" points="1858.0001,-63.2484 1854.5,-53.2485 1851.0001,-63.2485 1858.0001,-63.2484"/>
</g>
<!-- 23 -->
<g id="node24" class="node">
<title>23</title>
<path fill="#efb489" stroke="#000000" d="M2102,-53C2102,-53 1965,-53 1965,-53 1959,-53 1953,-47 1953,-41 1953,-41 1953,-12 1953,-12 1953,-6 1959,0 1965,0 1965,0 2102,0 2102,0 2108,0 2114,-6 2114,-12 2114,-12 2114,-41 2114,-41 2114,-47 2108,-53 2102,-53"/>
<text text-anchor="middle" x="2033.5" y="-37.8" font-family="Helvetica,sans-Serif" font-size="14.00" fill="#000000">squared_error = 2.072</text>
<text text-anchor="middle" x="2033.5" y="-22.8" font-family="Helvetica,sans-Serif" font-size="14.00" fill="#000000">samples = 141</text>
<text text-anchor="middle" x="2033.5" y="-7.8" font-family="Helvetica,sans-Serif" font-size="14.00" fill="#000000">value = 27.515</text>
</g>
<!-- 21&#45;&gt;23 -->
<g id="edge23" class="edge">
<title>21&#45;&gt;23</title>
<path fill="none" stroke="#000000" d="M1917.6087,-88.9777C1936.3792,-78.8584 1956.8506,-67.8222 1975.2937,-57.8794"/>
<polygon fill="#000000" stroke="#000000" points="1977.0268,-60.9213 1984.1683,-53.095 1973.705,-54.7597 1977.0268,-60.9213"/>
</g>
<!-- 25 -->
<g id="node26" class="node">
<title>25</title>
<path fill="#eda774" stroke="#000000" d="M2370,-157C2370,-157 2233,-157 2233,-157 2227,-157 2221,-151 2221,-145 2221,-145 2221,-101 2221,-101 2221,-95 2227,-89 2233,-89 2233,-89 2370,-89 2370,-89 2376,-89 2382,-95 2382,-101 2382,-101 2382,-145 2382,-145 2382,-151 2376,-157 2370,-157"/>
<text text-anchor="middle" x="2301.5" y="-141.8" font-family="Helvetica,sans-Serif" font-size="14.00" fill="#000000">avgtemp &lt;= 23.65</text>
<text text-anchor="middle" x="2301.5" y="-126.8" font-family="Helvetica,sans-Serif" font-size="14.00" fill="#000000">squared_error = 3.945</text>
<text text-anchor="middle" x="2301.5" y="-111.8" font-family="Helvetica,sans-Serif" font-size="14.00" fill="#000000">samples = 204</text>
<text text-anchor="middle" x="2301.5" y="-96.8" font-family="Helvetica,sans-Serif" font-size="14.00" fill="#000000">value = 29.873</text>
</g>
<!-- 24&#45;&gt;25 -->
<g id="edge25" class="edge">
<title>24&#45;&gt;25</title>
<path fill="none" stroke="#000000" d="M2301.5,-192.9465C2301.5,-184.776 2301.5,-175.9318 2301.5,-167.3697"/>
<polygon fill="#000000" stroke="#000000" points="2305.0001,-167.13 2301.5,-157.13 2298.0001,-167.13 2305.0001,-167.13"/>
</g>
<!-- 28 -->
<g id="node29" class="node">
<title>28</title>
<path fill="#e89051" stroke="#000000" d="M2639,-157C2639,-157 2502,-157 2502,-157 2496,-157 2490,-151 2490,-145 2490,-145 2490,-101 2490,-101 2490,-95 2496,-89 2502,-89 2502,-89 2639,-89 2639,-89 2645,-89 2651,-95 2651,-101 2651,-101 2651,-145 2651,-145 2651,-151 2645,-157 2639,-157"/>
<text text-anchor="middle" x="2570.5" y="-141.8" font-family="Helvetica,sans-Serif" font-size="14.00" fill="#000000">avgtemp &lt;= 27.05</text>
<text text-anchor="middle" x="2570.5" y="-126.8" font-family="Helvetica,sans-Serif" font-size="14.00" fill="#000000">squared_error = 5.606</text>
<text text-anchor="middle" x="2570.5" y="-111.8" font-family="Helvetica,sans-Serif" font-size="14.00" fill="#000000">samples = 59</text>
<text text-anchor="middle" x="2570.5" y="-96.8" font-family="Helvetica,sans-Serif" font-size="14.00" fill="#000000">value = 34.032</text>
</g>
<!-- 24&#45;&gt;28 -->
<g id="edge28" class="edge">
<title>24&#45;&gt;28</title>
<path fill="none" stroke="#000000" d="M2382.2089,-195.7966C2413.0636,-183.8676 2448.44,-170.1905 2480.138,-157.9355"/>
<polygon fill="#000000" stroke="#000000" points="2481.783,-161.052 2489.8481,-154.1814 2479.2588,-154.523 2481.783,-161.052"/>
</g>
<!-- 26 -->
<g id="node27" class="node">
<title>26</title>
<path fill="#edaa7a" stroke="#000000" d="M2281,-53C2281,-53 2144,-53 2144,-53 2138,-53 2132,-47 2132,-41 2132,-41 2132,-12 2132,-12 2132,-6 2138,0 2144,0 2144,0 2281,0 2281,0 2287,0 2293,-6 2293,-12 2293,-12 2293,-41 2293,-41 2293,-47 2287,-53 2281,-53"/>
<text text-anchor="middle" x="2212.5" y="-37.8" font-family="Helvetica,sans-Serif" font-size="14.00" fill="#000000">squared_error = 3.198</text>
<text text-anchor="middle" x="2212.5" y="-22.8" font-family="Helvetica,sans-Serif" font-size="14.00" fill="#000000">samples = 140</text>
<text text-anchor="middle" x="2212.5" y="-7.8" font-family="Helvetica,sans-Serif" font-size="14.00" fill="#000000">value = 29.256</text>
</g>
<!-- 25&#45;&gt;26 -->
<g id="edge26" class="edge">
<title>25&#45;&gt;26</title>
<path fill="none" stroke="#000000" d="M2270.1219,-88.9777C2261.6766,-79.8207 2252.5389,-69.9129 2244.0825,-60.744"/>
<polygon fill="#000000" stroke="#000000" points="2246.5221,-58.2266 2237.1696,-53.2485 2241.3764,-62.9723 2246.5221,-58.2266"/>
</g>
<!-- 27 -->
<g id="node28" class="node">
<title>27</title>
<path fill="#eb9f69" stroke="#000000" d="M2460,-53C2460,-53 2323,-53 2323,-53 2317,-53 2311,-47 2311,-41 2311,-41 2311,-12 2311,-12 2311,-6 2317,0 2323,0 2323,0 2460,0 2460,0 2466,0 2472,-6 2472,-12 2472,-12 2472,-41 2472,-41 2472,-47 2466,-53 2460,-53"/>
<text text-anchor="middle" x="2391.5" y="-37.8" font-family="Helvetica,sans-Serif" font-size="14.00" fill="#000000">squared_error = 2.922</text>
<text text-anchor="middle" x="2391.5" y="-22.8" font-family="Helvetica,sans-Serif" font-size="14.00" fill="#000000">samples = 64</text>
<text text-anchor="middle" x="2391.5" y="-7.8" font-family="Helvetica,sans-Serif" font-size="14.00" fill="#000000">value = 31.223</text>
</g>
<!-- 25&#45;&gt;27 -->
<g id="edge27" class="edge">
<title>25&#45;&gt;27</title>
<path fill="none" stroke="#000000" d="M2333.2306,-88.9777C2341.7708,-79.8207 2351.0113,-69.9129 2359.5626,-60.744"/>
<polygon fill="#000000" stroke="#000000" points="2362.2923,-62.9488 2366.5532,-53.2485 2357.1731,-58.1744 2362.2923,-62.9488"/>
</g>
<!-- 29 -->
<g id="node30" class="node">
<title>29</title>
<path fill="#e9965a" stroke="#000000" d="M2639,-53C2639,-53 2502,-53 2502,-53 2496,-53 2490,-47 2490,-41 2490,-41 2490,-12 2490,-12 2490,-6 2496,0 2502,0 2502,0 2639,0 2639,0 2645,0 2651,-6 2651,-12 2651,-12 2651,-41 2651,-41 2651,-47 2645,-53 2639,-53"/>
<text text-anchor="middle" x="2570.5" y="-37.8" font-family="Helvetica,sans-Serif" font-size="14.00" fill="#000000">squared_error = 1.688</text>
<text text-anchor="middle" x="2570.5" y="-22.8" font-family="Helvetica,sans-Serif" font-size="14.00" fill="#000000">samples = 42</text>
<text text-anchor="middle" x="2570.5" y="-7.8" font-family="Helvetica,sans-Serif" font-size="14.00" fill="#000000">value = 32.91</text>
</g>
<!-- 28&#45;&gt;29 -->
<g id="edge29" class="edge">
<title>28&#45;&gt;29</title>
<path fill="none" stroke="#000000" d="M2570.5,-88.9777C2570.5,-80.7364 2570.5,-71.887 2570.5,-63.5153"/>
<polygon fill="#000000" stroke="#000000" points="2574.0001,-63.2484 2570.5,-53.2485 2567.0001,-63.2485 2574.0001,-63.2484"/>
</g>
<!-- 30 -->
<g id="node31" class="node">
<title>30</title>
<path fill="#e58139" stroke="#000000" d="M2818,-53C2818,-53 2681,-53 2681,-53 2675,-53 2669,-47 2669,-41 2669,-41 2669,-12 2669,-12 2669,-6 2675,0 2681,0 2681,0 2818,0 2818,0 2824,0 2830,-6 2830,-12 2830,-12 2830,-41 2830,-41 2830,-47 2824,-53 2818,-53"/>
<text text-anchor="middle" x="2749.5" y="-37.8" font-family="Helvetica,sans-Serif" font-size="14.00" fill="#000000">squared_error = 4.478</text>
<text text-anchor="middle" x="2749.5" y="-22.8" font-family="Helvetica,sans-Serif" font-size="14.00" fill="#000000">samples = 17</text>
<text text-anchor="middle" x="2749.5" y="-7.8" font-family="Helvetica,sans-Serif" font-size="14.00" fill="#000000">value = 36.806</text>
</g>
<!-- 28&#45;&gt;30 -->
<g id="edge30" class="edge">
<title>28&#45;&gt;30</title>
<path fill="none" stroke="#000000" d="M2633.6087,-88.9777C2652.3792,-78.8584 2672.8506,-67.8222 2691.2937,-57.8794"/>
<polygon fill="#000000" stroke="#000000" points="2693.0268,-60.9213 2700.1683,-53.095 2689.705,-54.7597 2693.0268,-60.9213"/>
</g>
</g>
</svg>
